<svg id="Capa_1" enable-background="new 0 0 512 512" height="512" viewBox="0 0 512 512" width="512" xmlns="http://www.w3.org/2000/svg"><g><path d="m484.564 306.843h-36.804v-13.523c12.837-2.229 22.633-13.442 22.633-26.908 0-15.063-12.254-27.317-27.317-27.317h-54.88c-7.141-26.051-30.724-44.362-58.327-44.362-4.425 0-8.799.477-13.078 1.423-4.652-11.165-12.58-20.739-22.846-27.438-3.475-2.269-8.132-1.289-10.4 2.186-2.268 3.476-1.289 8.132 2.187 10.4 9.336 6.092 16.1 15.336 19.046 26.028 1.04 4.119 5.808 6.595 9.775 5.079 4.916-1.758 10.069-2.649 15.317-2.649 19.304 0 35.99 11.91 42.544 29.332h-222.988c6.554-17.422 23.239-29.332 42.543-29.332 5.247 0 10.402.891 15.318 2.649 3.967 1.517 8.736-.961 9.775-5.08 5.416-19.657 23.451-33.386 43.857-33.386 4.151 0 7.515-3.365 7.515-7.515s-3.364-7.515-7.515-7.515c-24.585 0-46.584 14.984-55.87 37.24-4.279-.946-8.656-1.423-13.08-1.423-27.603 0-51.186 18.31-58.327 44.362h-64.718c-15.063 0-27.317 12.254-27.317 27.318 0 13.466 9.796 24.679 22.633 26.907v13.523h-36.804c-15.128.001-27.436 12.309-27.436 27.438s12.308 27.436 27.436 27.436h36.804v109.973c0 22.227 18.083 40.311 40.311 40.311h302.898c22.228 0 40.311-18.083 40.311-40.311v-109.973h36.803c15.128 0 27.436-12.308 27.436-27.436s-12.307-27.437-27.435-27.437zm-457.128 39.844c-6.841 0-12.407-5.565-12.407-12.407s5.566-12.407 12.407-12.407h36.804v24.814zm380.013 150.284h-302.898c-13.94 0-25.282-11.341-25.282-25.281v-177.959h45.371c4.151 0 7.515-3.365 7.515-7.515s-3.364-7.515-7.515-7.515h-55.716c-6.775 0-12.288-5.513-12.288-12.289s5.513-12.288 12.288-12.288h374.153c6.775 0 12.288 5.512 12.288 12.288s-5.513 12.288-12.288 12.288h-288.378c-4.151 0-7.515 3.365-7.515 7.515s3.364 7.515 7.515 7.515h278.032v177.959c0 13.941-11.342 25.282-25.282 25.282zm77.115-150.284h-36.804v-24.814h36.803c6.842 0 12.407 5.566 12.407 12.407s-5.565 12.407-12.406 12.407z"/><path d="m121.62 140.62c-15.987 0-28.994 13.006-28.994 28.994s13.007 28.994 28.994 28.994 28.993-13.006 28.993-28.994-13.005-28.994-28.993-28.994zm0 42.958c-7.701 0-13.965-6.264-13.965-13.964s6.264-13.964 13.965-13.964c7.7 0 13.964 6.264 13.964 13.964s-6.264 13.964-13.964 13.964z"/><path d="m167.985 121.22c0 15.987 13.006 28.993 28.993 28.993s28.993-13.006 28.993-28.993-13.006-28.994-28.993-28.994-28.993 13.007-28.993 28.994zm42.957 0c0 7.7-6.264 13.964-13.964 13.964s-13.964-6.264-13.964-13.964 6.264-13.964 13.964-13.964 13.964 6.264 13.964 13.964z"/><path d="m372.766 181.325c0 15.987 13.006 28.994 28.993 28.994s28.994-13.006 28.994-28.994-13.007-28.994-28.994-28.994-28.993 13.006-28.993 28.994zm42.958 0c0 7.7-6.264 13.964-13.965 13.964-7.7 0-13.964-6.264-13.964-13.964s6.264-13.964 13.964-13.964c7.701-.001 13.965 6.263 13.965 13.964z"/><path d="m74.733 49.361 45.096 11.069c4.03.989 8.1-1.476 9.09-5.507.989-4.03-1.477-8.1-5.507-9.089l-36.856-9.046c6.245-11.473 19.66-17.795 32.928-14.54l286.005 70.197c13.268 3.257 22.231 15.073 22.455 28.133l-275.33-67.578c-4.034-.992-8.102 1.476-9.09 5.507-.989 4.03 1.477 8.1 5.507 9.089l283.572 69.6c3.924.997 8.117-1.445 9.09-5.507 5.85-23.837-8.783-47.99-32.619-53.841l-94.096-23.095 4.268-17.39c2.304-9.389-3.46-18.904-12.849-21.208l-63.757-15.647c-9.389-2.306-18.903 3.46-21.208 12.849l-4.268 17.389-94.096-23.094c-23.847-5.854-47.991 8.783-53.841 32.62-1.04 3.901 1.567 8.204 5.506 9.089zm161.295-32.422c.329-1.342 1.689-2.165 3.029-1.836l63.754 15.647c1.341.329 2.165 1.689 1.836 3.03l-4.268 17.389-68.619-16.84z"/></g></svg>